<svg width="229" height="66" viewBox="0 0 229 66" fill="none" xmlns="http://www.w3.org/2000/svg">
<path d="M75.6108 63.12C73.6481 63.12 71.9201 62.8853 70.4268 62.416C68.9334 61.9893 67.5681 61.3707 66.3308 60.56C65.1361 59.7493 63.9841 58.832 62.8748 57.808L66.3308 53.776C67.7388 55.0987 69.1681 56.1227 70.6188 56.848C72.0694 57.5733 73.6908 57.936 75.4828 57.936C77.4881 57.936 79.1734 57.5947 80.5388 56.912C81.9468 56.272 83.0134 55.3547 83.7388 54.16C84.4641 53.008 84.8268 51.664 84.8268 50.128L84.8908 42.96L85.4028 44.112C84.6348 45.9467 83.2481 47.504 81.2428 48.784C79.2374 50.0213 76.8054 50.64 73.9468 50.64C71.5148 50.64 69.2748 50.0213 67.2268 48.784C65.2214 47.5467 63.6001 45.8827 62.3628 43.792C61.1681 41.6587 60.5708 39.2693 60.5708 36.624C60.5708 33.8507 61.2108 31.4187 62.4908 29.328C63.7708 27.1947 65.4561 25.5093 67.5468 24.272C69.6374 23.0347 71.9201 22.416 74.3948 22.416C76.7414 22.416 78.8748 22.9067 80.7948 23.888C82.7574 24.8267 84.1868 26.0427 85.0828 27.536L84.7628 28.624L85.4028 23.504H90.8428V50.192C90.8428 52.5813 90.2241 54.7573 88.9868 56.72C87.7494 58.6827 86.0001 60.24 83.7388 61.392C81.4774 62.544 78.7681 63.12 75.6108 63.12ZM66.5228 36.496C66.5228 38.2027 66.9281 39.76 67.7388 41.168C68.5494 42.576 69.6374 43.6853 71.0028 44.496C72.4108 45.3067 73.9681 45.712 75.6748 45.712C77.2534 45.712 78.6614 45.4347 79.8988 44.88C81.1788 44.2827 82.2454 43.4933 83.0988 42.512C83.9521 41.488 84.5494 40.3147 84.8908 38.992V33.744C84.5068 32.464 83.8668 31.3547 82.9708 30.416C82.0748 29.4347 81.0081 28.688 79.7708 28.176C78.5334 27.6213 77.1681 27.344 75.6748 27.344C73.9681 27.344 72.4108 27.728 71.0028 28.496C69.6374 29.264 68.5494 30.352 67.7388 31.76C66.9281 33.1253 66.5228 34.704 66.5228 36.496ZM106.437 23.504L107.013 31.184L106.693 30.16C107.375 28.5387 108.357 27.1733 109.637 26.064C110.959 24.912 112.325 24.0373 113.733 23.44C115.183 22.8 116.442 22.48 117.509 22.48L117.189 28.368C115.183 28.24 113.413 28.624 111.877 29.52C110.383 30.416 109.189 31.6107 108.293 33.104C107.439 34.5973 107.013 36.1973 107.013 37.904V50H101.125V23.504H106.437ZM125.187 23.504H131.139V50H125.187V23.504ZM124.739 13.904C124.739 12.9653 125.102 12.176 125.827 11.536C126.595 10.896 127.427 10.576 128.323 10.576C129.219 10.576 130.009 10.896 130.691 11.536C131.417 12.176 131.779 12.9653 131.779 13.904C131.779 14.8853 131.417 15.696 130.691 16.336C130.009 16.9333 129.219 17.232 128.323 17.232C127.427 17.232 126.595 16.912 125.827 16.272C125.102 15.632 124.739 14.8427 124.739 13.904ZM141.437 0.463997H147.389V50H141.437V0.463997ZM173.303 50.64C171.298 50.64 169.357 50.1707 167.479 49.232C165.645 48.2933 164.215 47.0347 163.191 45.456L163.575 43.6V62.736H157.687V23.12H162.807L163.639 29.904L162.999 28.048C164.279 26.4267 165.901 25.0827 167.863 24.016C169.826 22.9493 172.023 22.416 174.455 22.416C176.93 22.416 179.149 23.0133 181.111 24.208C183.117 25.4027 184.695 27.0667 185.847 29.2C186.999 31.3333 187.575 33.8293 187.575 36.688C187.575 39.5467 186.957 42.0213 185.719 44.112C184.482 46.2027 182.775 47.824 180.599 48.976C178.466 50.0853 176.034 50.64 173.303 50.64ZM172.151 45.904C173.858 45.904 175.415 45.52 176.823 44.752C178.274 43.9413 179.426 42.8533 180.279 41.488C181.133 40.08 181.559 38.5013 181.559 36.752C181.559 34.96 181.154 33.3813 180.343 32.016C179.533 30.608 178.445 29.4987 177.079 28.688C175.757 27.8773 174.263 27.472 172.599 27.472C171.063 27.472 169.677 27.7707 168.439 28.368C167.202 28.9653 166.178 29.7973 165.367 30.864C164.557 31.888 163.981 33.0827 163.639 34.448V38.864C163.853 40.2293 164.365 41.4453 165.175 42.512C165.986 43.5787 166.989 44.4107 168.183 45.008C169.421 45.6053 170.743 45.904 172.151 45.904ZM206.633 50.64C204.158 50.64 201.897 50.1067 199.849 49.04C197.843 47.9733 196.243 46.416 195.049 44.368C193.897 42.2773 193.321 39.7387 193.321 36.752C193.321 33.808 193.939 31.2693 195.177 29.136C196.414 26.96 198.057 25.296 200.105 24.144C202.195 22.992 204.478 22.416 206.953 22.416C209.427 22.416 211.518 22.992 213.225 24.144C214.931 25.2533 216.233 26.576 217.129 28.112L216.745 29.136L217.321 23.504H222.825V50H216.873V43.088L217.513 44.624C217.342 45.0507 216.958 45.6053 216.361 46.288C215.806 46.928 215.038 47.5893 214.057 48.272C213.118 48.9547 212.03 49.5307 210.793 50C209.555 50.4267 208.169 50.64 206.633 50.64ZM208.233 45.712C209.726 45.712 211.07 45.4347 212.265 44.88C213.459 44.3253 214.441 43.5573 215.209 42.576C216.019 41.552 216.574 40.336 216.873 38.928V33.744C216.531 32.464 215.934 31.3547 215.081 30.416C214.227 29.4347 213.203 28.688 212.009 28.176C210.814 27.6213 209.491 27.344 208.041 27.344C206.462 27.344 205.011 27.728 203.689 28.496C202.366 29.264 201.299 30.3307 200.489 31.696C199.721 33.0613 199.337 34.6613 199.337 36.496C199.337 38.2027 199.742 39.76 200.553 41.168C201.363 42.576 202.451 43.6853 203.817 44.496C205.182 45.3067 206.654 45.712 208.233 45.712Z" fill="black"/>
<path d="M24.691 0.5L0.690996 47C0.43382 47.422 0.438862 47.527 0.690996 47.5H13.691C19.2423 47.3967 21.6478 46.5678 24.691 44C25.5565 42.9553 26.0261 42.3462 26.691 41C27.3391 39.5315 27.6366 38.5273 28.191 36C28.605 34.432 28.6545 33.2317 28.691 31V26C22.8942 27.5426 19.8527 28.9588 15.191 33.5C14.4603 34.3698 14.0933 34.8888 13.691 36C13.3011 37.1758 13.1855 37.8323 13.191 39C13.1798 39.6923 13.4065 40.0358 14.691 40.5C15.4861 40.6122 15.9231 40.6081 16.691 40.5C17.7407 40.2735 18.2539 40.0086 19.191 39.5C19.8691 39.1094 20.1931 38.8908 20.691 38.5C21.6098 37.8326 22.0229 37.3742 22.691 36.5C23.0021 36.0977 23.1964 35.8309 23.691 35C24.215 34.0243 24.415 33.4767 24.691 32.5L25.691 29.5V31.5V33L25.191 35L24.691 36.5L24.191 38C23.8974 38.6334 23.6844 38.9642 23.191 39.5L22.191 40.5L21.191 41.5L19.691 42.5L17.691 43C16.7819 43.1972 16.1146 43.307 14.691 43.5L6.691 43L23.191 10L38.691 41C41.3203 45.3036 43.1144 46.4328 46.691 47H55.191C55.8548 46.6923 55.899 46.4784 55.191 46C50.5678 45.4985 48.5887 44.3516 46.691 40L26.691 0.5H24.691Z" fill="#8BC646" stroke="#8BC646"/>
</svg>
